<svg width="33" height="8" viewBox="0 0 33 8" fill="none" xmlns="http://www.w3.org/2000/svg">
<path d="M7.54058 3.56582C7.54058 5.19232 6.1163 6.56913 4.28494 6.56913C2.45358 6.56913 1.0293 5.19232 1.0293 3.56582C1.0293 1.93931 2.45358 0.5625 4.28494 0.5625C6.1163 0.5625 7.54058 1.93931 7.54058 3.56582Z" stroke="black"/>
<path d="M19.7945 3.56582C19.7945 5.19232 18.3702 6.56913 16.5388 6.56913C14.7075 6.56913 13.2832 5.19232 13.2832 3.56582C13.2832 1.93931 14.7075 0.5625 16.5388 0.5625C18.3702 0.5625 19.7945 1.93931 19.7945 3.56582Z" stroke="black"/>
<path d="M32.0445 3.56582C32.0445 5.19232 30.6202 6.56913 28.7888 6.56913C26.9575 6.56913 25.5332 5.19232 25.5332 3.56582C25.5332 1.93931 26.9575 0.5625 28.7888 0.5625C30.6202 0.5625 32.0445 1.93931 32.0445 3.56582Z" stroke="black"/>
</svg>
