<svg width="236" height="56" viewBox="0 0 236 56" fill="none" xmlns="http://www.w3.org/2000/svg">
<path fill-rule="evenodd" clip-rule="evenodd" d="M0.737061 11.5552H11.8571V44.0352H0.737061V11.5552ZM0.737061 9.17516V0.0351562H11.8571V9.17516H0.737061ZM1.73706 43.0352V12.5552H10.8571V43.0352H1.73706ZM10.8571 8.17516H1.73706V1.03516H10.8571V8.17516ZM17.4363 11.5552H27.9563V14.1799C29.1319 12.946 30.3173 12.0901 31.4832 11.5099C33.256 10.6277 34.9189 10.4152 36.3163 10.4152C39.4208 10.4152 41.6524 11.3767 43.2407 12.7516C44.2321 13.6097 44.9452 14.6046 45.4652 15.5685C47.2604 13.3408 49.114 12.0558 50.8276 11.3274C52.8658 10.4609 54.6314 10.4152 55.6963 10.4152C58.3132 10.4152 60.3844 11.0154 62.0041 12.0401C63.6223 13.0639 64.7252 14.4706 65.4726 15.9818C66.9485 18.9661 67.0763 22.4415 67.0763 24.4952V44.0352H55.9563V25.0952C55.9563 23.5205 55.8312 21.8056 55.285 20.5115C55.0185 19.8801 54.6712 19.3974 54.2331 19.0715C53.8059 18.7537 53.2261 18.5352 52.3963 18.5352C51.3583 18.5352 50.2535 18.9164 49.3945 19.9076C48.527 20.9085 47.8163 22.6417 47.8163 25.5152V44.0352H36.6963V25.0952C36.6963 22.8417 36.451 21.1631 35.8746 20.0724C35.5985 19.5497 35.2567 19.1828 34.8386 18.9391C34.4173 18.6935 33.8533 18.5352 33.0763 18.5352C32.1841 18.5352 31.0825 18.9135 30.1919 19.933C29.3029 20.9508 28.5563 22.6898 28.5563 25.5152V44.0352H17.4363V11.5552ZM45.9483 16.5724C45.7168 16.8752 45.486 17.1958 45.2563 17.5352C45.1269 17.1874 44.9746 16.8222 44.7938 16.4506C43.6335 14.0652 41.2999 11.4152 36.3163 11.4152C33.992 11.4152 30.986 12.0482 27.9563 15.6832C27.6229 16.0831 27.2893 16.5194 26.9563 16.9952V12.5552H18.4363V43.0352H27.5563V25.5152C27.5563 19.5152 30.7363 17.5352 33.0763 17.5352C36.7363 17.5352 37.6963 20.5352 37.6963 25.0952V43.0352H46.8163V25.5152C46.8163 19.4552 49.8163 17.5352 52.3963 17.5352C56.4763 17.5352 56.9563 21.9152 56.9563 25.0952V43.0352H66.0763V24.4952C66.0763 20.4152 65.5363 11.4152 55.6963 11.4152C53.7728 11.4152 49.7691 11.5752 45.9483 16.5724ZM72.4558 11.5552H83.0523L83.0149 13.8373C86.3755 10.7599 89.896 10.4152 91.9958 10.4152C96.5525 10.4152 100.309 12.1147 102.909 15.2122C105.493 18.2895 106.856 22.65 106.856 27.8552C106.856 32.833 105.471 37.1589 102.864 40.2589C100.241 43.3768 96.4448 45.1752 91.8158 45.1752C90.7711 45.1752 86.7867 44.9705 83.5758 42.373V55.1352H72.4558V11.5552ZM82.5758 39.9152C82.8891 40.3287 83.2247 40.7024 83.5758 41.04C86.5867 43.9345 90.7411 44.1752 91.8158 44.1752C100.516 44.1752 105.856 37.4552 105.856 27.8552C105.856 17.7752 100.576 11.4152 91.9958 11.4152C89.8936 11.4152 86.3121 11.7722 82.9916 15.2611C82.7108 15.5562 82.4318 15.8736 82.1558 16.2152H81.9759L82.0358 12.5552H73.4558V54.1352H82.5758V39.9152ZM85.4087 20.1363C84.2069 21.3756 83.1558 23.6391 83.1558 27.7352C83.1558 30.2886 83.5954 32.6674 84.5876 34.3721C85.5426 36.013 87.0137 37.0552 89.2958 37.0552C91.543 37.0552 93.0001 36.0178 93.9501 34.3747C94.9363 32.6687 95.3758 30.2884 95.3758 27.7352C95.3758 23.6393 94.3248 21.3744 93.1286 20.1344C91.9313 18.8932 90.4499 18.5352 89.2958 18.5352C88.1074 18.5352 86.6117 18.8957 85.4087 20.1363ZM133.775 10.4152V18.6882L132.633 18.5251C132.293 18.4765 132.001 18.4752 131.575 18.4752H130.375C127.902 18.4752 125.889 19.0283 124.457 20.6497C122.993 22.3069 121.955 25.2793 121.955 30.5552V44.0352H110.835V11.5552H121.955V14.2142C122.943 13.1065 124.072 12.2908 125.283 11.7069C127.349 10.7108 129.599 10.4152 131.695 10.4152H133.775ZM121.955 15.822C121.594 16.3351 121.259 16.9043 120.955 17.5352V12.5552H111.835V43.0352H120.955V30.5552C120.955 19.8152 125.155 17.4752 130.375 17.4752H131.575C131.643 17.4752 131.709 17.4752 131.775 17.4754C132.113 17.4767 132.423 17.4849 132.775 17.5352V11.4152H131.695C128.184 11.4152 124.444 12.2846 121.955 15.822ZM156.295 33.2152H167.602L167.25 34.4828C165.966 39.1039 163.191 41.8138 159.989 43.3381C156.83 44.8415 153.296 45.1752 150.447 45.1752C148.392 45.1752 144.068 44.9674 140.234 42.6622C136.313 40.3047 133.067 35.8525 133.067 27.7352C133.067 22.2463 134.941 17.8829 138.207 14.8993C141.461 11.9271 145.997 10.4152 151.167 10.4152C155.053 10.4152 158.072 11.2751 160.407 12.6787C162.742 14.0822 164.333 15.9936 165.419 18.0051C167.481 21.8247 167.747 26.0679 167.869 28.029C167.875 28.114 167.88 28.1946 167.885 28.2708L167.885 28.2851L167.983 31.0152H144.604C144.736 32.1722 145.102 33.4859 145.834 34.583C146.749 35.9567 148.272 37.0552 150.867 37.0552C153.309 37.0552 155.487 36.0114 156.086 33.9376L156.295 33.2152ZM143.599 31.0152C143.563 30.6633 143.547 30.3271 143.547 30.0152H166.947L166.887 28.3352C166.882 28.264 166.877 28.1893 166.872 28.1114C166.621 24.1148 165.821 11.4152 151.167 11.4152C141.207 11.4152 134.067 17.2352 134.067 27.7352C134.067 43.3352 146.427 44.1752 150.447 44.1752C155.804 44.1752 163.263 42.9584 165.974 35.2152C166.086 34.8932 166.191 34.56 166.287 34.2152H157.047C156.267 36.9152 153.507 38.0552 150.867 38.0552C145.61 38.0552 143.902 33.9799 143.599 31.0152ZM143.547 24.9152H157.467C157.457 24.5658 157.436 24.2327 157.406 23.9152C156.862 18.2878 153.148 17.5352 151.047 17.5352C146.206 17.5352 144.162 20.9585 143.66 23.9152C143.603 24.2567 143.565 24.5921 143.547 24.9152ZM144.676 23.9152H156.401C156.152 21.5329 155.296 20.2615 154.403 19.5583C153.351 18.7298 152.054 18.5352 151.047 18.5352C148.647 18.5352 147.103 19.4653 146.116 20.6842C145.348 21.6336 144.889 22.7969 144.676 23.9152ZM170.05 32.4352H181.396L181.447 33.3817C181.524 34.8193 182.027 35.6613 182.776 36.1859C183.582 36.7497 184.824 37.0552 186.568 37.0552C187.501 37.0552 188.522 36.8512 189.272 36.4372C189.994 36.0387 190.368 35.5166 190.368 34.8152C190.368 34.1476 190.178 33.6923 189.878 33.34C189.56 32.9654 189.059 32.6387 188.336 32.3572C186.986 31.8325 185.178 31.5736 183.101 31.2763C182.892 31.2463 182.679 31.2159 182.465 31.1848L182.463 31.1846C180.213 30.8545 177.321 30.3248 174.986 28.8506C172.569 27.3238 170.808 24.82 170.808 20.7752C170.808 19.2975 171.119 16.659 173.265 14.3948C175.417 12.1235 179.237 10.4152 185.848 10.4152C191.524 10.4152 195.178 11.8196 197.441 13.9227C199.707 16.0286 200.429 18.6967 200.527 20.9111L200.573 21.9552H190.329L190.252 21.0396C190.19 20.3143 189.983 19.8464 189.744 19.533C189.504 19.217 189.185 18.9973 188.808 18.8438C188.046 18.5334 187.176 18.5344 186.537 18.5351C186.507 18.5351 186.477 18.5352 186.448 18.5352C185.682 18.5352 184.526 18.5831 183.589 18.8846C183.125 19.034 182.791 19.2226 182.583 19.431C182.4 19.6141 182.288 19.8356 182.288 20.1752C182.288 20.8557 182.485 21.3111 182.776 21.6531C183.085 22.0163 183.561 22.3202 184.217 22.571C185.33 22.9959 186.697 23.182 188.112 23.3747C188.424 23.4172 188.738 23.4599 189.052 23.5056L189.056 23.5061L189.225 23.5314C191.758 23.9094 194.853 24.3712 197.317 25.7264C198.601 26.4324 199.749 27.3965 200.57 28.7412C201.392 30.0879 201.848 31.7521 201.848 33.7952C201.848 36.2652 201.22 39.169 198.838 41.4412C196.466 43.7038 192.527 45.1752 186.268 45.1752C181.363 45.1752 177.398 44.0817 174.601 42.0433C171.775 39.9834 170.22 37.0111 170.089 33.4722L170.05 32.4352ZM188.908 24.4952L188.998 24.5087C194.205 25.2864 200.848 26.2787 200.848 33.7952C200.848 38.4152 198.508 44.1752 186.268 44.1752C177.228 44.1752 171.905 40.3499 171.168 34.4352C171.127 34.1081 171.101 33.7747 171.088 33.4352H180.448C180.628 36.7952 182.908 38.0552 186.568 38.0552C188.668 38.0552 191.368 37.1552 191.368 34.8152C191.368 31.446 187.564 30.903 183.265 30.2894C183.047 30.2583 182.828 30.227 182.608 30.1952C178.108 29.5352 171.808 28.1552 171.808 20.7752C171.808 18.0752 172.948 11.4152 185.848 11.4152C196.007 11.4152 198.901 16.0382 199.438 19.9552C199.485 20.295 199.514 20.6295 199.528 20.9552H191.248C190.957 17.5223 187.845 17.5312 186.563 17.5349C186.523 17.535 186.484 17.5352 186.448 17.5352C184.888 17.5352 181.288 17.7152 181.288 20.1752C181.288 23.4603 184.885 23.9475 188.022 24.3723C188.323 24.413 188.619 24.4532 188.908 24.4952ZM203.507 32.4352H214.853L214.904 33.3817C214.981 34.8193 215.484 35.6613 216.233 36.1859C217.039 36.7497 218.281 37.0552 220.025 37.0552C220.958 37.0552 221.979 36.8512 222.729 36.4372C223.451 36.0387 223.825 35.5166 223.825 34.8152C223.825 34.1476 223.635 33.6923 223.335 33.34C223.017 32.9654 222.516 32.6387 221.793 32.3572C220.443 31.8325 218.635 31.5736 216.558 31.2763C216.349 31.2463 216.136 31.2159 215.922 31.1848L215.92 31.1846C213.67 30.8545 210.778 30.3248 208.444 28.8506C206.026 27.3238 204.265 24.82 204.265 20.7752C204.265 19.2975 204.576 16.659 206.722 14.3948C208.874 12.1235 212.694 10.4152 219.305 10.4152C224.981 10.4152 228.635 11.8196 230.898 13.9227C233.164 16.0286 233.886 18.6967 233.984 20.9111L234.03 21.9552H223.786L223.709 21.0396C223.647 20.3143 223.44 19.8464 223.201 19.533C222.961 19.217 222.642 18.9973 222.265 18.8438C221.503 18.5334 220.633 18.5344 219.994 18.5351L219.905 18.5352C219.139 18.5352 217.983 18.5831 217.046 18.8846C216.582 19.034 216.248 19.2226 216.04 19.431C215.857 19.6141 215.745 19.8356 215.745 20.1752C215.745 20.8557 215.942 21.3111 216.233 21.6531C216.542 22.0163 217.018 22.3202 217.674 22.571C218.787 22.9959 220.154 23.182 221.569 23.3747C221.881 23.4172 222.195 23.4599 222.509 23.5056L222.513 23.5061L222.682 23.5314C225.215 23.9094 228.31 24.3712 230.774 25.7264C232.058 26.4324 233.206 27.3965 234.027 28.7412C234.849 30.0879 235.305 31.7521 235.305 33.7952C235.305 36.2652 234.677 39.169 232.295 41.4412C229.923 43.7038 225.984 45.1752 219.725 45.1752C214.82 45.1752 210.855 44.0817 208.059 42.0433C205.232 39.9834 203.677 37.0111 203.546 33.4722L203.507 32.4352ZM222.365 24.4952L222.455 24.5087C227.662 25.2864 234.305 26.2787 234.305 33.7952C234.305 38.4152 231.965 44.1752 219.725 44.1752C210.685 44.1752 205.362 40.3499 204.625 34.4352C204.584 34.1081 204.558 33.7747 204.545 33.4352H213.905C214.085 36.7952 216.365 38.0552 220.025 38.0552C222.125 38.0552 224.825 37.1552 224.825 34.8152C224.825 31.446 221.021 30.903 216.722 30.2894C216.504 30.2583 216.285 30.227 216.065 30.1952C211.565 29.5352 205.265 28.1552 205.265 20.7752C205.265 18.0752 206.405 11.4152 219.305 11.4152C229.464 11.4152 232.358 16.0382 232.895 19.9552C232.942 20.295 232.971 20.6295 232.985 20.9552H224.705C224.414 17.5223 221.302 17.5312 220.02 17.5349C219.98 17.535 219.941 17.5352 219.905 17.5352C218.345 17.5352 214.745 17.7152 214.745 20.1752C214.745 23.4603 218.342 23.9475 221.479 24.3723C221.78 24.413 222.076 24.4532 222.365 24.4952ZM89.2958 17.5352C86.5358 17.5352 82.1558 19.2152 82.1558 27.7352C82.1558 33.0152 83.9558 38.0552 89.2958 38.0552C94.5758 38.0552 96.3758 33.0152 96.3758 27.7352C96.3758 19.2152 91.9958 17.5352 89.2958 17.5352Z" fill="black"/>
</svg>
